<?xml version="1.0" standalone="no"?><!DOCTYPE svg PUBLIC "-//W3C//DTD SVG 1.1//EN" "http://www.w3.org/Graphics/SVG/1.1/DTD/svg11.dtd"><svg t="1593827512745" class="icon" viewBox="0 0 1024 1024" version="1.1" xmlns="http://www.w3.org/2000/svg" p-id="3795" width="128" height="128" xmlns:xlink="http://www.w3.org/1999/xlink"><defs><style type="text/css"></style></defs><path d="M408.032 368a72 72 0 1 0 0 144 72 72 0 0 0 0-144zM883.04 629.92c-36.4-66.576-84.688-91.088-129.888-114.832-35.36-18.56-68.752-36.096-102.816-75.84-16.208-18.88-31.008-43.936-46.656-70.448-53.68-90.832-121.504-205.744-315.92-142.368 27.44 32.08 52.096 51.824 66.672 62.128 100.32-17.616 134.256 42.752 180.864 121.632 16.752 28.336 34.08 57.632 54.848 81.888 44.048 51.392 87.792 74.336 126.336 94.592 40.96 21.52 72.128 37.024 96.848 82.288 33.344 60.976 35.952 146.448 34.752 190.256-37.536 6.16-115.28 10.88-210.24-25.76-159.744-61.632-296-214.624-334.72-326.944-29.216-84.864-9.008-160.88-8.848-161.472l7.344-26.56-21.6-16.704C279.136 301.12 191.792 231.712 137.312 80l-74.88 27.552c47.248 131.52 116.8 209.2 150.64 241.36-5.824 36.528-10.96 106.992 15.632 184.16C272.8 660.992 421.2 836.16 609.456 908.8c70.944 27.36 135.504 35.04 184.352 35.04 62.72 0 102.08-12.896 104.928-13.856l24.24-8.224 2.72-25.728c0.688-6.416 16.032-158.8-42.656-266.128zM696.032 800a72 72 0 1 0 0-144 72 72 0 1 0 0 144z m-176-112a72 72 0 1 0 0-144 72 72 0 1 0 0 144z" p-id="3796" fill="#e16531"></path></svg>