<svg t="1711765546330" class="icon" viewBox="0 0 1024 1024" version="1.1" xmlns="http://www.w3.org/2000/svg" p-id="14221" width="200" height="200"><path d="M818.688 453.12c-88.064 116.224-196.608 208.384-331.776 265.728-112.128 47.104-230.4 69.12-347.648 96.256-11.776 3.072-18.944-3.072-27.136-8.192-64-38.912-89.088-102.4-91.136-172.544-6.144-157.184 105.472-291.84 261.632-324.608 65.024-13.824 131.584-13.824 196.608-19.968 192.512-16.896 346.112-98.304 445.952-268.8 1.024-2.048 4.096-2.048 8.192-3.072 33.28 104.448 61.952 207.36 78.336 315.904 14.848 99.328 14.848 196.608-14.848 292.864-44.032 147.456-146.432 227.84-292.864 257.536-121.344 25.088-243.712 14.848-366.08 8.192-38.912-2.048-77.312-1.024-116.224 1.024 28.16-18.944 59.392-27.136 90.112-35.84 107.52-32.256 214.528-65.024 304.64-136.192 87.04-69.12 160.256-148.48 209.408-247.808 4.096-4.096 5.12-10.24 5.12-14.848 1.024-5.12 4.096-10.24 0-14.848-3.072 3.072-7.168 6.144-12.288 9.216z" fill="#76BC1D" p-id="14222"></path><path d="M69.12 954.368c-33.28 1.024-50.176-16.896-51.2-52.224-1.024-37.888 22.016-64 57.344-64s57.344 19.968 59.392 55.296c0.512 38.912-21.504 59.904-65.536 60.928z" fill="#77BD1F" p-id="14223"></path><path d="M818.688 453.12c5.12-12.8 10.24-25.088 25.088-34.304 5.12 24.064-7.168 38.912-17.92 54.272 0-8.192 2.048-15.872-7.168-19.968z" fill="#EAF4DD" p-id="14224"></path><path d="M861.696 386.048c-2.048 11.264 0 22.016-16.896 31.232 1.024-16.384 6.144-25.6 16.896-31.232z" fill="#E3F1D2" p-id="14225"></path></svg>